<svg width="16" height="16" viewBox="0 0 16 16" fill="none" xmlns="http://www.w3.org/2000/svg">
<path d="M13.3333 4.66663H2.66665C1.93027 4.66663 1.33331 5.26358 1.33331 5.99996V12.6666C1.33331 13.403 1.93027 14 2.66665 14H13.3333C14.0697 14 14.6666 13.403 14.6666 12.6666V5.99996C14.6666 5.26358 14.0697 4.66663 13.3333 4.66663Z" stroke="#FFA438" stroke-linecap="round" stroke-linejoin="round"/>
<path d="M10.6666 4.85779V3.33333C10.6666 2.97971 10.5262 2.64057 10.2761 2.39052C10.0261 2.14048 9.68694 2 9.33331 2H6.66665C6.31302 2 5.97389 2.14048 5.72384 2.39052C5.47379 2.64057 5.33331 2.97971 5.33331 3.33333V4.85779" stroke="#FFA438" stroke-linejoin="round"/>
<path d="M13.7606 4.8578V6.63002C13.7606 7.04112 13.4571 7.43537 12.917 7.72606C12.3768 8.01675 11.6442 8.18005 10.8803 8.18005H5.11969C4.35578 8.18005 3.62316 8.01675 3.083 7.72606C2.54284 7.43537 2.23938 7.04112 2.23938 6.63002V4.8578" stroke="#FFA438" stroke-linejoin="round"/>
<path d="M6.95831 9.33337H9.04165" stroke="#FFA438" stroke-linecap="round"/>
</svg>
