<svg width="14" height="14" viewBox="0 0 14 14" fill="none" xmlns="http://www.w3.org/2000/svg">
<path d="M10.6112 1.59545C9.54229 0.881218 8.28558 0.5 7 0.5C5.27609 0.5 3.62279 1.18482 2.40381 2.40381C1.18482 3.62279 0.5 5.27609 0.5 7C0.5 8.28558 0.881218 9.54229 1.59545 10.6112C2.30968 11.6801 3.32484 12.5132 4.51256 13.0052C5.70028 13.4972 7.00721 13.6259 8.26809 13.3751C9.52896 13.1243 10.6872 12.5052 11.5962 11.5962C12.5052 10.6872 13.1243 9.52896 13.3751 8.26809C13.6259 7.00721 13.4972 5.70028 13.0052 4.51256C12.5132 3.32484 11.6801 2.30968 10.6112 1.59545Z" stroke="#FFA438"/>
<path d="M7.06885 6.57586V6.79197L7.25601 6.90003L9.73795 8.33294C9.73796 8.33294 9.73796 8.33295 9.73797 8.33295C9.77601 8.35492 9.80377 8.39111 9.81514 8.43355C9.82652 8.47599 9.82056 8.52121 9.79859 8.55927C9.77662 8.59731 9.74043 8.62508 9.698 8.63645C9.65555 8.64782 9.61033 8.64187 9.57227 8.6199L7.08194 7.18213C7.07514 7.17789 7.06866 7.17316 7.06256 7.16796L6.98175 7.09914L6.87683 7.08299C6.83807 7.07702 6.80272 7.05739 6.77717 7.02765C6.75165 6.99795 6.73758 6.96012 6.73747 6.92098V4.04134C6.73747 3.9974 6.75493 3.95526 6.786 3.92418C6.81707 3.89311 6.85922 3.87566 6.90316 3.87566C6.9471 3.87566 6.98925 3.89311 7.02032 3.92418C7.05139 3.95526 7.06885 3.9974 7.06885 4.04134V6.57586Z" stroke="#FFA438" stroke-width="0.748626"/>
</svg>
