<svg width="16" height="16" viewBox="0 0 16 16" fill="none" xmlns="http://www.w3.org/2000/svg">
<path d="M11.858 9.9158V5.1144M4.08372 9.62019V5.11549M1.7076 14.3683L5.42928 10.9669M1.7076 14.3683C1.94292 14.5658 2.54773 14.5365 2.6674 14.5286C2.68144 14.5277 2.69519 14.5271 2.70926 14.5271H13.493C13.5065 14.5271 13.5198 14.5266 13.5332 14.5251C13.6328 14.5137 14.078 14.4491 14.2345 14.1872M1.7076 14.3683C1.56703 14.2526 1.59547 13.489 1.60013 13.3828C1.6005 13.3744 1.60069 13.3663 1.60069 13.3579V8.34738C1.60069 8.34738 1.60069 8.34738 1.60069 8.34738C1.60069 8.34738 1.60069 7.87705 1.60069 7.67307M14.2345 14.1872C12.7737 12.9123 10.4821 10.9669 10.4821 10.9669M14.2345 14.1872C14.4291 13.8552 14.4068 13.2391 14.4011 13.1294C14.4005 13.1181 14.4001 13.1069 14.4001 13.0955V8.16522C14.4001 8.16522 14.4001 8.16522 14.4001 8.16522C14.4001 8.16522 14.4001 7.88049 14.2901 7.67307M14.2901 7.67307L10.4821 10.9669M14.2901 7.67307C14.1608 7.42949 13.9583 7.18753 13.908 7.12894C13.9002 7.11993 13.8921 7.1114 13.8836 7.10309L11.858 5.1144M1.60069 7.67307L5.42928 10.9669M1.60069 7.67307C1.60069 7.45712 2.05918 7.02905 2.10032 6.99108C2.1025 6.98907 2.10434 6.98735 2.1065 6.98531L4.08372 5.11549M4.08372 5.11549V3.88306C4.08372 3.60691 4.30758 3.38306 4.58372 3.38306H5.80809M5.80809 3.38306L7.60531 1.8465C7.79076 1.68795 8.06356 1.6864 8.2508 1.84283L10.0944 3.38306M5.80809 3.38306H10.0944M11.858 5.1144V3.88306C11.858 3.60691 11.6341 3.38306 11.358 3.38306H10.0944M5.42928 10.9669L7.58992 8.9577C7.78022 8.78075 8.07435 8.77906 8.26667 8.95381L10.4821 10.9669" stroke="#FFA438"/>
</svg>
