<svg width="18" height="16" viewBox="0 0 18 16" fill="none" xmlns="http://www.w3.org/2000/svg">
<path d="M15.2222 14.8571V2.9206C15.2222 2.4491 15.0349 1.99692 14.7015 1.66352C14.3681 1.33012 13.9159 1.14282 13.4444 1.14282H4.55556C4.08406 1.14282 3.63188 1.33012 3.29848 1.66352C2.96508 1.99692 2.77778 2.4491 2.77778 2.9206V14.8571M15.2222 14.8571H2.77778M15.2222 14.8571H17M15.2222 14.8571H10.7778M2.77778 14.8571H1M2.77778 14.8571H7.22222M10.7778 14.8571V12.6984C10.7778 12.4626 10.6841 12.2365 10.5174 12.0698C10.3507 11.9031 10.1246 11.8095 9.88889 11.8095H8.11111C7.87536 11.8095 7.64927 11.9031 7.48257 12.0698C7.31587 12.2365 7.22222 12.4626 7.22222 12.6984V14.8571M10.7778 14.8571H7.22222M6.33333 4.69838H7.22222M6.33333 8.25393H7.22222M10.7778 4.69838H11.6667M10.7778 8.25393H11.6667" stroke="#FFA438" stroke-linecap="round" stroke-linejoin="round"/>
</svg>
