<svg width="16" height="17" viewBox="0 0 16 17" fill="none" xmlns="http://www.w3.org/2000/svg">
<path d="M3.70411 2.25055C3.70411 2.25055 4.57316 1.65706 5.18307 1.72195C6.00546 1.80945 6.51293 2.28824 7.11628 3.17447C7.63008 3.92915 7.95014 5.07523 7.81439 5.58692C7.56045 6.54407 5.84863 7.18867 5.84863 7.18867C5.70103 7.37429 6.3485 8.60647 7.11628 9.59213C7.80727 10.479 8.65252 11.2134 8.87883 11.2069L8.91796 11.2015L8.96491 11.1857C8.96491 11.1857 9.96294 10.1857 11.0944 9.78581C11.6424 9.59213 12.3408 10.2365 12.9785 10.9019C14.0717 12.0424 14.3149 12.2614 14.0717 13.239C13.9329 13.7964 13.4867 14.4964 13.4867 14.4964C13.1022 14.9773 12.5878 15.3378 12.0044 15.5348C11.4211 15.7319 10.7934 15.7573 10.196 15.6081C8.33684 15.1434 6.51183 13.7447 4.70874 11.4303C2.90111 9.11013 1.99091 6.99429 1.99933 5.07523C2.00178 4.49431 2.16158 3.9249 2.46175 3.42753C2.76193 2.93016 3.19126 2.52343 3.70411 2.25055Z" stroke="#FFA438" stroke-linejoin="round"/>
</svg>
