<svg width="16" height="16" viewBox="0 0 16 16" fill="none" xmlns="http://www.w3.org/2000/svg">
<path d="M12.7119 8.00605C12.8226 7.80613 12.9985 7.65016 13.2102 7.5641C13.4219 7.47804 13.6566 7.46708 13.8754 7.53305L14.2339 7.64105L14.3299 7.67305C14.6269 7.7817 14.8889 7.96878 15.088 8.21441C15.2872 8.46004 15.416 8.75504 15.4609 9.06805C15.6094 10.102 15.2774 11.3111 14.4769 12.6976C13.6784 14.0806 12.7994 14.9715 11.8319 15.3615C11.5211 15.4868 11.1808 15.5202 10.8515 15.4577C10.5222 15.3952 10.2178 15.2395 9.97444 15.009L9.70344 14.752L9.64244 14.689C9.49173 14.519 9.40342 14.3027 9.39206 14.0758C9.3807 13.8488 9.44696 13.6248 9.57994 13.4405L10.2584 12.5005L10.3039 12.4435C10.3992 12.3356 10.5236 12.2573 10.6622 12.2181C10.8008 12.1789 10.9477 12.1805 11.0854 12.2225L12.1109 12.5361L12.1374 12.5411H12.1589C12.2814 12.5276 12.5304 12.2801 12.8364 11.7501C13.1764 11.1611 13.2464 10.8166 13.1529 10.7276L12.6314 10.2415L12.5649 10.175C12.3989 9.99514 12.2895 9.7704 12.2502 9.52877C12.2109 9.28714 12.2435 9.03929 12.3439 8.81605L12.6749 8.08055L12.7119 8.00605Z" stroke="#FFA438"/>
<path d="M8.08996 12.505H4.32896C4.18578 12.505 4.0697 12.3889 4.0697 12.2458V11.8755C4.0697 10.4948 5.18899 9.37549 6.5697 9.37549H8.58889C9.13902 9.37549 9.70643 9.63909 10.0095 9.96471C10.1582 10.1246 10.2074 10.2594 10.211 10.3477C10.2137 10.4149 10.1943 10.5226 10.0299 10.6642C9.95182 10.7314 9.85613 10.802 9.73618 10.8884C9.72211 10.8985 9.70772 10.9089 9.69304 10.9194C9.5882 10.9948 9.46903 11.0805 9.35198 11.1726C9.08514 11.3827 8.78541 11.659 8.5837 12.0406C8.50449 12.1904 8.41028 12.3173 8.31378 12.4011C8.22016 12.4824 8.14711 12.505 8.08996 12.505Z" stroke="#FFA438"/>
<path fill-rule="evenodd" clip-rule="evenodd" d="M1.08997 3.86084C1.08997 2.75627 1.9854 1.86084 3.08997 1.86084H12.7458C13.8503 1.86084 14.7458 2.75627 14.7458 3.86084V5.97285H13.9458V3.86084C13.9458 3.1981 13.4085 2.66084 12.7458 2.66084H3.08997C2.42722 2.66084 1.88997 3.1981 1.88997 3.86084V10.972C1.88997 11.6347 2.42722 12.172 3.08997 12.172H5.91928V12.972H3.08997C1.9854 12.972 1.08997 12.0766 1.08997 10.972V3.86084Z" fill="#FFA438"/>
<path d="M8.66994 5.96745C8.66994 6.81389 7.98375 7.50008 7.13731 7.50008C6.29086 7.50008 5.60468 6.81389 5.60468 5.96745C5.60468 5.121 6.29086 4.43481 7.13731 4.43481C7.98375 4.43481 8.66994 5.121 8.66994 5.96745Z" stroke="#FFA438"/>
</svg>
