<svg width="12" height="12" viewBox="0 0 12 12" fill="none" xmlns="http://www.w3.org/2000/svg">
<path d="M6 0.75C7.03835 0.75 8.05338 1.05791 8.91674 1.63478C9.7801 2.21166 10.453 3.0316 10.8504 3.99091C11.2477 4.95022 11.3517 6.00582 11.1491 7.02422C10.9465 8.04262 10.4465 8.97808 9.71231 9.71231C8.97808 10.4465 8.04262 10.9465 7.02422 11.1491C6.00582 11.3517 4.95022 11.2477 3.99091 10.8504C3.0316 10.453 2.21166 9.7801 1.63478 8.91674C1.05791 8.05338 0.75 7.03835 0.75 6C0.75 4.60761 1.30312 3.27225 2.28769 2.28769C3.27225 1.30312 4.60761 0.75 6 0.75Z" stroke="#8999A5" stroke-width="1.5"/>
<path d="M5.94316 5.86454V5.57586V3.04134C5.94316 3.03073 5.93895 3.02056 5.93144 3.01306C5.92394 3.00556 5.91377 3.00134 5.90316 3.00134C5.89255 3.00134 5.88238 3.00556 5.87487 3.01306C5.86737 3.02056 5.86316 3.03073 5.86316 3.04134V5.92075C5.86321 5.92992 5.86652 5.93878 5.8725 5.94574C5.87851 5.95274 5.88683 5.95736 5.89595 5.95876L6.0361 5.98034L6.14405 6.07227C6.14508 6.07314 6.14616 6.07396 6.14727 6.07472L8.63512 7.51105C8.6443 7.51635 8.65522 7.51779 8.66547 7.51504C8.67571 7.5123 8.68444 7.5056 8.68974 7.49642L5.94316 5.86454ZM5.94316 5.86454L6.19316 6.00888M5.94316 5.86454L6.19316 6.00888M6.19316 6.00888L8.6751 7.44179C8.67511 7.44179 8.67512 7.44179 8.67512 7.4418C8.6843 7.4471 8.691 7.45583 8.69374 7.46607C8.69648 7.47632 8.69505 7.48722 8.68975 7.49641L6.19316 6.00888Z" stroke="#8999A5"/>
</svg>
