<svg width="18" height="18" viewBox="0 0 18 18" fill="none" xmlns="http://www.w3.org/2000/svg">
<path fill-rule="evenodd" clip-rule="evenodd" d="M17.5737 0.426316C17.8579 0.710528 18 1.06579 18 1.49211C18 1.91842 17.8579 2.27368 17.5737 2.55789L11.1316 9L17.5737 15.4421C17.8579 15.7263 18 16.0816 18 16.5079C18 16.9342 17.8579 17.2895 17.5737 17.5737C17.2895 17.8579 16.9342 18 16.5079 18C16.0816 18 15.7263 17.8579 15.4421 17.5737L9 11.1316L2.55789 17.5737C2.27368 17.8579 1.91842 18 1.49211 18C1.06579 18 0.710528 17.8579 0.426316 17.5737C0.142104 17.2895 0 16.9342 0 16.5079C0 16.0816 0.142104 15.7263 0.426316 15.4421L6.86842 9L0.426316 2.55789C0.142104 2.27368 0 1.91842 0 1.49211C0 1.06579 0.142104 0.710528 0.426316 0.426316C0.710528 0.142104 1.06579 0 1.49211 0C1.91842 0 2.27368 0.142104 2.55789 0.426316L9 6.86842L15.4421 0.426316C15.7263 0.142104 16.0816 0 16.5079 0C16.9342 0 17.2895 0.142104 17.5737 0.426316Z" fill="#606483"/>
</svg>
