<svg width="16" height="16" viewBox="0 0 16 16" fill="none" xmlns="http://www.w3.org/2000/svg">
<path d="M6.44444 15H9.55556M13.4444 15V2.55556C13.4444 2.143 13.2806 1.74733 12.9888 1.45561C12.6971 1.16389 12.3014 1 11.8889 1H4.11111C3.69855 1 3.30289 1.16389 3.01117 1.45561C2.71944 1.74733 2.55556 2.143 2.55556 2.55556V15H13.4444ZM13.4444 15H15H13.4444ZM13.4444 15H9.55556H13.4444ZM2.55556 15H1H2.55556ZM2.55556 15H6.44444H2.55556ZM5.66667 4.11111H6.44444H5.66667ZM5.66667 7.22222H6.44444H5.66667ZM9.55556 4.11111H10.3333H9.55556ZM9.55556 7.22222H10.3333H9.55556ZM6.44444 15V11.1111C6.44444 10.9048 6.52639 10.707 6.67225 10.5611C6.81811 10.4153 7.01594 10.3333 7.22222 10.3333H8.77778C8.98406 10.3333 9.18189 10.4153 9.32775 10.5611C9.47361 10.707 9.55556 10.9048 9.55556 11.1111V15H6.44444Z" stroke="#C4CDDF" stroke-width="1.5" stroke-linecap="round" stroke-linejoin="round"/>
</svg>
