<svg width="20" height="17" viewBox="0 0 20 17" fill="none" xmlns="http://www.w3.org/2000/svg">
<path d="M9.43571 2.5113L10 3.15581L10.5643 2.5113C11.4372 1.51427 12.7849 0.877686 14.1829 0.877686C16.6514 0.877686 18.5454 2.7493 18.5454 5.10023C18.5454 6.55573 17.8793 7.93861 16.5428 9.5279C15.1983 11.1266 13.2607 12.8373 10.8517 14.962L10.8506 14.963L9.99811 15.7178L9.14886 14.9716C9.14861 14.9713 9.14835 14.9711 9.1481 14.9709C6.73931 12.8418 4.80186 11.1291 3.4574 9.52922C2.12073 7.93865 1.45462 6.55574 1.45462 5.10023C1.45462 2.7493 3.34856 0.877686 5.81708 0.877686C7.21505 0.877686 8.56279 1.51427 9.43571 2.5113Z" stroke="#606483" stroke-width="1.5"/>
</svg>
