<svg width="8" height="12" viewBox="0 0 8 12" fill="none" xmlns="http://www.w3.org/2000/svg">
<path d="M4.3848 11.859C4.66094 11.859 4.8848 11.6352 4.8848 11.359V10.5894C4.8848 10.3133 5.10865 10.0894 5.3848 10.0894H7.03918C7.31533 10.0894 7.53918 9.86559 7.53918 9.58944V8.81985C7.53918 8.54371 7.31532 8.31985 7.03918 8.31985H5.38479C5.10865 8.31985 4.8848 8.09599 4.8848 7.81985V7.7126C4.8848 7.48421 5.04108 7.28842 5.25523 7.20905C5.86425 6.98333 6.37672 6.60475 6.79264 6.0733C7.29033 5.43735 7.53918 4.71154 7.53918 3.89587C7.53918 2.91891 7.19356 2.08481 6.50231 1.39356C5.81107 0.702313 4.97696 0.356689 4 0.356689C3.02304 0.356689 2.18893 0.702313 1.49769 1.39356C0.806439 2.08481 0.460815 2.91891 0.460815 3.89587C0.460815 4.71154 0.709664 5.43735 1.20736 6.0733C1.62328 6.60475 2.13575 6.98333 2.74476 7.20905C2.95892 7.28842 3.1152 7.48421 3.1152 7.7126V7.81985C3.1152 8.09599 2.89135 8.31985 2.6152 8.31985H0.960815C0.684673 8.31985 0.460815 8.54371 0.460815 8.81985V9.58944C0.460815 9.86559 0.684673 10.0894 0.960815 10.0894H2.6152C2.89135 10.0894 3.1152 10.3133 3.1152 10.5894V11.359C3.1152 11.6352 3.33906 11.859 3.6152 11.859H4.3848ZM4 2.12628C4.48848 2.12628 4.90553 2.29909 5.25116 2.64472C5.59678 2.99034 5.76959 3.40739 5.76959 3.89587C5.76959 4.38435 5.59678 4.80141 5.25116 5.14703C4.90553 5.49265 4.48848 5.66546 4 5.66546C3.51152 5.66546 3.09447 5.49265 2.74884 5.14703C2.40322 4.80141 2.23041 4.38435 2.23041 3.89587C2.23041 3.40739 2.40322 2.99034 2.74884 2.64472C3.09447 2.29909 3.51152 2.12628 4 2.12628Z" fill="#1E1D2E"/>
</svg>
