<svg width="16" height="16" viewBox="0 0 16 16" fill="none" xmlns="http://www.w3.org/2000/svg">
<path d="M12.9 3.8H10.8V3.1C10.8 2.54305 10.5788 2.0089 10.1849 1.61508C9.7911 1.22125 9.25695 1 8.7 1H7.3C6.74305 1 6.2089 1.22125 5.81508 1.61508C5.42125 2.0089 5.2 2.54305 5.2 3.1V3.8H3.1C2.54305 3.8 2.0089 4.02125 1.61508 4.41508C1.22125 4.8089 1 5.34305 1 5.9V12.2C1 12.757 1.22125 13.2911 1.61508 13.6849C2.0089 14.0788 2.54305 14.3 3.1 14.3H12.9C13.457 14.3 13.9911 14.0788 14.3849 13.6849C14.7788 13.2911 15 12.757 15 12.2V5.9C15 5.34305 14.7788 4.8089 14.3849 4.41508C13.9911 4.02125 13.457 3.8 12.9 3.8ZM6.6 3.1C6.6 2.91435 6.67375 2.7363 6.80503 2.60503C6.9363 2.47375 7.11435 2.4 7.3 2.4H8.7C8.88565 2.4 9.0637 2.47375 9.19497 2.60503C9.32625 2.7363 9.4 2.91435 9.4 3.1V3.8H6.6V3.1ZM13.6 12.2C13.6 12.3857 13.5263 12.5637 13.395 12.695C13.2637 12.8263 13.0857 12.9 12.9 12.9H3.1C2.91435 12.9 2.7363 12.8263 2.60503 12.695C2.47375 12.5637 2.4 12.3857 2.4 12.2V8.665H4.5V9.4C4.5 9.58565 4.57375 9.7637 4.70503 9.89497C4.8363 10.0262 5.01435 10.1 5.2 10.1C5.38565 10.1 5.5637 10.0262 5.69497 9.89497C5.82625 9.7637 5.9 9.58565 5.9 9.4V8.665H10.1V9.4C10.1 9.58565 10.1737 9.7637 10.305 9.89497C10.4363 10.0262 10.6143 10.1 10.8 10.1C10.9857 10.1 11.1637 10.0262 11.295 9.89497C11.4263 9.7637 11.5 9.58565 11.5 9.4V8.665H13.6V12.2ZM13.6 7.3H2.4V5.9C2.4 5.71435 2.47375 5.5363 2.60503 5.40503C2.7363 5.27375 2.91435 5.2 3.1 5.2H12.9C13.0857 5.2 13.2637 5.27375 13.395 5.40503C13.5263 5.5363 13.6 5.71435 13.6 5.9V7.3Z" fill="#C4CDDF"/>
</svg>
