<svg width="24" height="24" viewBox="0 0 24 24" fill="none" xmlns="http://www.w3.org/2000/svg">
<mask id="path-1-inside-1_404_5298" fill="white">
<path fill-rule="evenodd" clip-rule="evenodd" d="M22 9V12.0001V12.5V16.0001C22 17.1001 21.1 18.0001 20 18.0001H17.755V16.0001H11.9241H6.24769V18.0001H4C2.9 18.0001 2 17.1001 2 16.0001V12.5V12.0001V9C2 7.9 2.9 7 4 7H20C21.1 7 22 7.9 22 9Z"/>
</mask>
<path d="M17.755 18.0001H16.255V19.5001H17.755V18.0001ZM17.755 16.0001H19.255V14.5001H17.755V16.0001ZM6.24769 16.0001V14.5001H4.74769V16.0001H6.24769ZM6.24769 18.0001V19.5001H7.74769V18.0001H6.24769ZM23.5 12.0001V9H20.5V12.0001H23.5ZM23.5 12.5V12.0001H20.5V12.5H23.5ZM23.5 16.0001V12.5H20.5V16.0001H23.5ZM20 19.5001C21.9284 19.5001 23.5 17.9285 23.5 16.0001H20.5C20.5 16.2716 20.2716 16.5001 20 16.5001V19.5001ZM17.755 19.5001H20V16.5001H17.755V19.5001ZM16.255 16.0001V18.0001H19.255V16.0001H16.255ZM11.9241 17.5001H17.755V14.5001H11.9241V17.5001ZM6.24769 17.5001H11.9241V14.5001H6.24769V17.5001ZM7.74769 18.0001V16.0001H4.74769V18.0001H7.74769ZM4 19.5001H6.24769V16.5001H4V19.5001ZM0.5 16.0001C0.5 17.9285 2.07157 19.5001 4 19.5001V16.5001C3.72843 16.5001 3.5 16.2716 3.5 16.0001H0.5ZM0.5 12.5V16.0001H3.5V12.5H0.5ZM0.5 12.0001V12.5H3.5V12.0001H0.5ZM0.5 9V12.0001H3.5V9H0.5ZM4 5.5C2.07157 5.5 0.5 7.07157 0.5 9H3.5C3.5 8.72843 3.72843 8.5 4 8.5V5.5ZM20 5.5H4V8.5H20V5.5ZM23.5 9C23.5 7.07157 21.9284 5.5 20 5.5V8.5C20.2716 8.5 20.5 8.72843 20.5 9H23.5Z" fill="#606483" mask="url(#path-1-inside-1_404_5298)"/>
<path d="M5.5 3.20068H18.5V7.63836H5.5V3.20068Z" stroke="#606483" stroke-width="1.5" stroke-linecap="round" stroke-linejoin="round"/>
<path d="M18.75 15.5H5.25C4.85 15.5 4.5 15.15 4.5 14.75C4.5 14.35 4.85 14 5.25 14H18.75C19.15 14 19.5 14.35 19.5 14.75C19.5 15.15 19.15 15.5 18.75 15.5Z" fill="#606483"/>
<path d="M5.5 15.5327H18.5V22.0006H5.5V15.5327Z" stroke="#606483" stroke-width="1.5" stroke-linecap="round" stroke-linejoin="round"/>
<line x1="8.53891" y1="18.6538" x2="15.4611" y2="18.6538" stroke="#606483" stroke-width="1.5" stroke-linecap="round"/>
</svg>
