<svg width="48" height="45" viewBox="0 0 48 45" fill="none" xmlns="http://www.w3.org/2000/svg">
<ellipse cx="22.7354" cy="22.1833" rx="22.3235" ry="22" fill="#E7EEF6"/>
<path d="M40.9498 32.0798V14.0009C40.9498 13.1961 40.2871 12.5377 39.4772 12.5377H15.9616C15.1517 12.5377 14.489 13.1961 14.489 14.0009V32.0889H40.9498V32.0798Z" fill="#7991BE"/>
<path d="M43.4805 12.5377H38.9799C39.7898 12.5377 40.4525 13.1961 40.4525 14.0009V32.0889H44.9531V14.0009C44.9531 13.187 44.2996 12.5377 43.4805 12.5377Z" fill="#606483"/>
<path d="M40.9492 15.3636H18.3079C17.7649 15.3636 17.3323 15.7934 17.3323 16.333V31.193H40.9492V15.3636Z" fill="white"/>
<path d="M42.1093 31.1839V16.333C42.1093 15.7934 41.6675 15.3636 41.1337 15.3636H40.4526V31.193H42.1093V31.1839Z" fill="#F3F6F8"/>
<path d="M43.1493 32.9028V31.1836H12.9425C12.4547 31.1836 12.059 31.5768 12.059 32.0615C12.059 33.799 13.4764 35.2072 15.2251 35.2072H40.8299C42.1092 35.2164 43.1493 34.183 43.1493 32.9028Z" fill="#7991BE"/>
<path d="M46.4994 31.1836H42.8823V32.9028C42.8823 34.1739 41.8423 35.2072 40.563 35.2072H44.2169C45.9656 35.2072 47.383 33.799 47.383 32.0615C47.383 31.5768 46.9872 31.1836 46.4994 31.1836Z" fill="#606483"/>
<path d="M24.3368 31.1836C24.3368 32.2992 25.248 33.1954 26.3617 33.1954H33.0712C34.1941 33.1954 35.096 32.2901 35.096 31.1836H24.3368Z" fill="#606483"/>
<path d="M32.3193 16.406H30.3424C29.3631 16.406 28.5669 17.1907 28.5669 18.1558V19.8424L28.9238 20.095H32.4749V16.6676L32.3193 16.406Z" fill="#F9CC5D"/>
<path d="M36.2088 25.5156L33.6737 24.785H29.7108L27.1756 25.5156C26.2696 25.7772 25.6472 26.598 25.6472 27.536V31.0897H37.7464V27.536C37.7372 26.598 37.1149 25.7772 36.2088 25.5156Z" fill="#E7EEF6"/>
<path d="M36.2089 25.5156L33.6737 24.785H31.706L31.7243 25.7772L33.7103 26.3815C34.6164 26.6431 35.2387 27.4638 35.2387 28.4019V31.0987H37.7373V27.545C37.7373 26.598 37.1149 25.7772 36.2089 25.5156Z" fill="#D8DEEB"/>
<path d="M32.0808 27.1935H31.3121L30.6165 31.0719V31.0809H32.7764L32.0808 27.1935Z" fill="#606483"/>
<path d="M33.0884 24.9475V22.7467H30.3062V24.9475C30.3062 25.7051 31.6973 25.7682 31.6973 25.7682C31.6973 25.7682 33.0884 25.7051 33.0884 24.9475Z" fill="#FFDDCE"/>
<path d="M36.0258 31.0809V29.8632C36.0258 29.7009 35.8977 29.5746 35.7329 29.5746C35.5682 29.5746 35.44 29.7009 35.44 29.8632V31.0809H36.0258Z" fill="#B9CBEA"/>
<path d="M34.049 17.4251H34.0215C33.8751 17.4251 33.7653 17.3078 33.7653 17.1726C33.7653 16.7577 33.4175 16.4149 32.9965 16.4149H32.3192V20.1039H34.4608L34.8177 19.8514V18.1918C34.8177 17.7678 34.47 17.4251 34.049 17.4251Z" fill="#F7BD3C"/>
<path d="M29.7565 24.6319L29.363 24.8032C29.1342 24.9025 29.0792 25.2001 29.2531 25.3715L30.3514 26.4538C30.4887 26.5891 30.7083 26.5981 30.8548 26.4719L31.7151 25.7593L30.2507 24.677C30.1134 24.5868 29.9212 24.5597 29.7565 24.6319Z" fill="#B9CBEA"/>
<path d="M33.1242 24.695L31.7147 25.7683L32.5201 26.4538C32.6666 26.58 32.8862 26.571 33.0326 26.4357L34.1309 25.3804C34.314 25.2091 34.259 24.9114 34.0302 24.8122L33.6275 24.6318C33.4628 24.5597 33.2706 24.5867 33.1242 24.695Z" fill="#B9CBEA"/>
<path d="M31.724 25.7682L30.8729 26.4627L31.303 27.1933H32.0718L32.502 26.4266L31.724 25.7682Z" fill="#606483"/>
<path d="M27.9539 31.0809V29.8632C27.9539 29.7009 27.8257 29.5746 27.661 29.5746C27.4962 29.5746 27.3681 29.7009 27.3681 29.8632V31.0809H27.9539Z" fill="#B9CBEA"/>
<path d="M32.4749 21.3757V18.6338C31.7793 18.76 31.0563 18.7149 30.379 18.4985C30.0129 18.3812 29.6377 18.6518 29.6377 19.0306V19.3192C29.6377 19.6079 29.3997 19.8514 29.0977 19.8514H28.5669V20.7173C28.5669 20.9337 28.7499 21.1141 28.9696 21.1141C29.0428 21.1141 29.0977 21.1682 29.0977 21.2404C29.1709 22.4129 30.0495 23.369 31.1936 23.5855C31.9532 23.1165 32.4566 22.3047 32.4749 21.3757Z" fill="#FFDDCE"/>
<path d="M34.2866 19.8424C33.9937 19.8424 33.7466 19.6079 33.7466 19.3102V19.0216C33.7466 18.6428 33.3714 18.3722 33.0053 18.4894C32.7765 18.5616 32.5477 18.6157 32.3189 18.6518V21.3306C32.3006 22.2686 31.7697 23.0894 30.9918 23.5223C31.2115 23.5855 31.4494 23.6125 31.6874 23.6125C33.0602 23.6125 34.1859 22.5572 34.2774 21.2224C34.2774 21.1502 34.3415 21.0961 34.4056 21.0961C34.6252 21.0961 34.8083 20.9157 34.8083 20.6992V19.8424H34.2866Z" fill="#FFCBBE"/>
<path d="M31.4234 10.5991H30.2545V12.5286H31.4234V10.5991Z" fill="#606483"/>
<path d="M33.4391 9.42887C33.4391 10.8554 32.2702 12.0168 30.8344 12.0168C29.3986 12.0168 28.2298 10.8554 28.2298 9.42887C28.2298 8.00231 29.3986 6.84094 30.8344 6.84094C32.2794 6.84094 33.4391 7.99317 33.4391 9.42887Z" fill="#B6C2DA"/>
<path d="M32.0495 9.4284C32.0495 10.096 31.5064 10.6355 30.8346 10.6355C30.1627 10.6355 29.6197 10.096 29.6197 9.4284C29.6197 8.76085 30.1627 8.22131 30.8346 8.22131C31.5064 8.22131 32.0495 8.76085 32.0495 9.4284Z" fill="#606483"/>
<path d="M31.4142 9.42853C31.4142 9.74859 31.1565 10.0046 30.8344 10.0046C30.5123 10.0046 30.2545 9.74859 30.2545 9.42853C30.2545 9.10847 30.5123 8.85242 30.8344 8.85242C31.1565 8.85242 31.4142 9.10847 31.4142 9.42853Z" fill="#1E1D2E"/>
<path opacity="0.7" d="M31.487 8.98962C31.487 9.1085 31.3952 9.19995 31.2758 9.19995C31.1565 9.19995 31.0646 9.1085 31.0646 8.98962C31.0646 8.87074 31.1565 8.7793 31.2758 8.7793C31.3952 8.7793 31.487 8.87074 31.487 8.98962Z" fill="white"/>
<path opacity="0.1" d="M33.439 9.42875C33.439 8.00219 32.2702 6.84082 30.8344 6.84082V12.0167C32.2794 12.0167 33.439 10.8553 33.439 9.42875Z" fill="#D8DEEB"/>
<path d="M18.2582 8.11621H14.037C12.2327 8.11621 10.7677 9.55997 10.7677 11.3381V14.4459L13.5156 19.5194L18.6141 20.1557V9.02162L18.2582 8.11621Z" fill="#CB7B4F"/>
<path d="M20.8827 9.99228H20.8331C20.5682 9.99228 20.353 9.7802 20.353 9.51918C20.353 8.74428 19.7157 8.11621 18.9294 8.11621H18.2507V20.0904L20.3033 19.2013L22.2898 14.4459V11.3871C22.298 10.6122 21.6607 9.99228 20.8827 9.99228Z" fill="#B65D37"/>
<path d="M25.5496 29.2178C25.5496 27.6925 24.5482 26.3466 23.0749 25.8898L19.0863 23.9485L17.5634 23.3612L16.5371 23.3286L11.7779 23.4917L7.42436 24.8539C5.94282 25.3107 4.94133 26.6647 4.94133 28.1819V39.9691C4.94133 40.6787 5.5207 41.2497 6.24078 41.2497H25.5496V29.2178Z" fill="#FFA04F"/>
<path d="M25.6496 24.854L21.296 23.4918L17.2487 23.3531L15.5685 23.0269L22.5686 26.1428C24.0419 26.5995 25.0433 27.9536 25.0433 29.4707V41.2756H26.8249C27.545 41.2756 28.1244 40.7047 28.1244 39.995V28.182C28.1244 26.6648 27.1229 25.3108 25.6496 24.854Z" fill="#EF8B35"/>
<path d="M19.2021 23.2388V19.9189H13.8636V23.2388L16.5287 23.3285L19.2021 23.2388Z" fill="#FFCBBE"/>
<path d="M19.8804 18.9894C18.912 18.9894 14.2688 19.2015 13.8798 18.916H13.9129C13.2342 18.6957 11.7526 14.446 11.7526 14.446H10.7677V16.0366C10.7677 16.4445 11.0988 16.7707 11.5126 16.7707C11.6451 16.7707 11.7526 16.8686 11.7609 16.9991C11.8934 19.1117 13.4411 20.8491 15.4772 21.2978C17.2898 20.6044 19.8804 18.9894 19.8804 18.9894Z" fill="#FFCBBE"/>
<path d="M21.321 14.446C21.321 14.446 20.4189 18.8833 19.3925 19.022C19.136 19.0546 17.3482 19.1444 17.1164 19.2015C17.1164 19.2015 16.8764 20.5555 15.0059 21.1754C15.4859 21.3385 15.9991 21.4201 16.5371 21.4201C19.078 21.4201 21.1555 19.4706 21.3127 17.0073C21.321 16.8768 21.4286 16.7789 21.561 16.7789C21.9749 16.7789 22.306 16.4526 22.306 16.0448V14.446H21.321Z" fill="#FFCBBE"/>
<path d="M16.5284 25.2618L15.1048 26.469C14.7572 26.7708 14.2192 26.7137 13.9378 26.3467L11.761 23.4836L12.5473 22.8066C12.928 22.4803 13.5074 22.4885 13.8799 22.8311L16.5284 25.2618Z" fill="#FFA04F"/>
<path d="M16.6362 21.5178L16.4707 23.141C16.4872 23.5978 17.1246 23.9486 17.588 23.8996L21.1967 23.5244L21.1636 22.4966C21.1471 21.9909 20.7498 21.5831 20.2449 21.5504L16.6362 21.5178Z" fill="#EF8B35"/>
<path d="M13.0357 21.5423C12.5308 21.5831 12.1253 21.9909 12.117 22.4885L12.0839 23.5162L15.6926 23.8914C16.156 23.9404 16.6609 23.5896 16.6775 23.1329L16.6444 21.5096L13.0357 21.5423Z" fill="#FFA04F"/>
<path d="M22.5156 33.7967C22.5156 33.5436 22.7207 33.3385 22.9738 33.3385C23.2268 33.3385 23.4319 33.5436 23.4319 33.7967V41.2497H22.5156V33.7967Z" fill="#EF8B35"/>
<path d="M8.84241 33.8225C8.84241 33.5695 9.04754 33.3644 9.30058 33.3644C9.55361 33.3644 9.75874 33.5695 9.75874 33.8225V41.2756H8.84241V33.8225Z" fill="#EF8B35"/>
<path d="M39.9746 18.8594C40.5356 18.8594 40.9905 18.4112 40.9905 17.8582C40.9905 17.3053 40.5356 16.8571 39.9746 16.8571C39.4135 16.8571 38.9587 17.3053 38.9587 17.8582C38.9587 18.4112 39.4135 18.8594 39.9746 18.8594Z" fill="#DD636E"/>
</svg>
