<svg width="25" height="25" viewBox="0 0 25 25" fill="none" xmlns="http://www.w3.org/2000/svg">
<rect x="0.5" y="0.732056" width="24" height="24" rx="12" fill="#FFA438"/>
<path d="M11.2274 5.5199C10.3272 5.5199 9.46397 5.87748 8.82748 6.51397C8.19098 7.15046 7.8334 8.01374 7.8334 8.91387C7.8334 9.81401 8.19098 10.6773 8.82748 11.3138C9.46397 11.9503 10.3272 12.3078 11.2274 12.3078C12.1275 12.3078 12.9908 11.9503 13.6273 11.3138C14.2638 10.6773 14.6214 9.81401 14.6214 8.91387C14.6214 8.01374 14.2638 7.15046 13.6273 6.51397C12.9908 5.87748 12.1275 5.5199 11.2274 5.5199Z" fill="white"/>
<path d="M6.99248 13.1563C6.76902 13.1554 6.54758 13.1986 6.34086 13.2835C6.13414 13.3683 5.94621 13.4932 5.78784 13.6508C5.62947 13.8085 5.50379 13.9959 5.41799 14.2022C5.33219 14.4085 5.28797 14.6298 5.28786 14.8533C5.28786 16.2881 5.99465 17.3699 7.09939 18.075C8.18716 18.7682 9.65336 19.0957 11.2273 19.0957C11.5752 19.0957 11.9197 19.0796 12.254 19.0474C11.5879 18.2196 11.2255 17.1885 11.2273 16.126C11.2273 14.9975 11.6278 13.9623 12.2939 13.1563H6.99333H6.99248Z" fill="white"/>
<path d="M15.8941 19.9443C16.9068 19.9443 17.8779 19.542 18.594 18.826C19.3101 18.1099 19.7123 17.1387 19.7123 16.1261C19.7123 15.1134 19.3101 14.1422 18.594 13.4262C17.8779 12.7101 16.9068 12.3079 15.8941 12.3079C14.8814 12.3079 13.9103 12.7101 13.1942 13.4262C12.4782 14.1422 12.0759 15.1134 12.0759 16.1261C12.0759 17.1387 12.4782 18.1099 13.1942 18.826C13.9103 19.542 14.8814 19.9443 15.8941 19.9443ZM15.8941 14.0048C16.0066 14.0048 16.1145 14.0495 16.1941 14.1291C16.2737 14.2087 16.3184 14.3166 16.3184 14.4291V15.7018H17.5911C17.7036 15.7018 17.8115 15.7465 17.8911 15.8261C17.9706 15.9057 18.0153 16.0136 18.0153 16.1261C18.0153 16.2386 17.9706 16.3465 17.8911 16.4261C17.8115 16.5056 17.7036 16.5503 17.5911 16.5503H16.3184V17.8231C16.3184 17.9356 16.2737 18.0435 16.1941 18.1231C16.1145 18.2026 16.0066 18.2473 15.8941 18.2473C15.7816 18.2473 15.6737 18.2026 15.5941 18.1231C15.5146 18.0435 15.4699 17.9356 15.4699 17.8231V16.5503H14.1971C14.0846 16.5503 13.9767 16.5056 13.8971 16.4261C13.8176 16.3465 13.7729 16.2386 13.7729 16.1261C13.7729 16.0136 13.8176 15.9057 13.8971 15.8261C13.9767 15.7465 14.0846 15.7018 14.1971 15.7018H15.4699V14.4291C15.4699 14.3166 15.5146 14.2087 15.5941 14.1291C15.6737 14.0495 15.7816 14.0048 15.8941 14.0048Z" fill="white"/>
</svg>
