<svg width="25" height="25" viewBox="0 0 25 25" fill="none" xmlns="http://www.w3.org/2000/svg">
<rect x="0.5" y="0.220215" width="24" height="24" rx="12" fill="#C6F8C2"/>
<path d="M9.27808 7.90812C9.27808 7.90812 9.92987 7.46301 10.3873 7.51168C11.0041 7.5773 11.3847 7.9364 11.8372 8.60106C12.2226 9.16708 12.4626 10.0266 12.3608 10.4104C12.1703 11.1283 10.8865 11.6117 10.8865 11.6117C10.7758 11.7509 11.2614 12.6751 11.8372 13.4143C12.3554 14.0795 12.9894 14.6302 13.1591 14.6254L13.1885 14.6213L13.2237 14.6095C13.2237 14.6095 13.9722 13.8595 14.8208 13.5596C15.2318 13.4143 15.7556 13.8976 16.2339 14.3966C17.0538 15.252 17.2362 15.4163 17.0537 16.1494C16.9497 16.5675 16.615 17.0925 16.615 17.0925C16.3267 17.4532 15.9408 17.7235 15.5033 17.8713C15.0658 18.0192 14.5951 18.0382 14.147 17.9263C12.7526 17.5777 11.3839 16.5287 10.0316 14.793C8.67584 13.0528 7.99318 11.4659 7.9995 10.0266C8.00133 9.59094 8.12119 9.16389 8.34632 8.79086C8.57145 8.41784 8.89344 8.11278 9.27808 7.90812Z" fill="#7CC076"/>
</svg>
