<svg width="25" height="25" viewBox="0 0 25 25" fill="none" xmlns="http://www.w3.org/2000/svg">
<rect x="0.5" y="0.244019" width="24" height="24" rx="12" fill="#CDDEFF"/>
<path d="M17.212 12.2501C17.3227 12.0502 17.4985 11.8942 17.7102 11.8081C17.9219 11.7221 18.1567 11.7111 18.3755 11.7771L18.7339 11.8851L18.83 11.9171C19.1269 12.0257 19.3889 12.2128 19.588 12.4584C19.7872 12.7041 19.9161 12.9991 19.9609 13.3121C20.1094 14.3461 19.7775 15.5551 18.977 16.9416C18.1785 18.3246 17.2995 19.2156 16.332 19.6056C16.0211 19.7309 15.6808 19.7642 15.3515 19.7018C15.0222 19.6393 14.7178 19.4835 14.4745 19.2531L14.2035 18.9961L14.1425 18.9331C13.9917 18.763 13.9034 18.5467 13.8921 18.3198C13.8807 18.0929 13.947 17.8688 14.08 17.6846L14.7585 16.7446L14.804 16.6876C14.8992 16.5796 15.0236 16.5013 15.1622 16.4621C15.3008 16.4229 15.4477 16.4245 15.5855 16.4666L16.611 16.7801L16.6375 16.7851H16.659C16.7815 16.7716 17.0305 16.5241 17.3365 15.9941C17.6765 15.4051 17.7465 15.0606 17.653 14.9716L17.1315 14.4856L17.065 14.4191C16.8989 14.2392 16.7895 14.0144 16.7502 13.7728C16.7109 13.5312 16.7435 13.2833 16.844 13.0601L17.175 12.3246L17.212 12.2501Z" fill="#107EDC"/>
<path d="M9.06972 17.249H12.3492C12.9015 17.249 13.3279 16.7606 13.6535 16.3145C13.9864 15.8586 14.5175 15.5787 14.8561 15.2871C15.8942 14.3932 14.4588 13.1195 13.0889 13.1195H11.0697C9.41286 13.1195 8.06972 14.4627 8.06972 16.1195V16.249C8.06972 16.8013 8.51743 17.249 9.06972 17.249Z" fill="#107EDC"/>
<path fill-rule="evenodd" clip-rule="evenodd" d="M5.58997 8.10486C5.58997 7.00029 6.4854 6.10486 7.58997 6.10486H17.2458C18.3503 6.10486 19.2458 7.00029 19.2458 8.10486V10.2169H18.4458V8.10486C18.4458 7.44212 17.9085 6.90486 17.2458 6.90486H7.58997C6.92722 6.90486 6.38997 7.44212 6.38997 8.10486V15.216C6.38997 15.8787 6.92722 16.416 7.58997 16.416H10.4193V17.216H7.58997C6.4854 17.216 5.58997 16.3206 5.58997 15.216V8.10486Z" fill="#107EDC"/>
<circle cx="11.6373" cy="10.2113" r="2.03263" fill="#107EDC"/>
</svg>
