<svg width="19" height="19" viewBox="0 0 19 19" fill="none" xmlns="http://www.w3.org/2000/svg">
<path d="M9.44231 6.5927C7.80355 6.5927 6.4662 7.93005 6.4662 9.5688C6.4662 11.2076 7.80355 12.5449 9.44231 12.5449C11.0811 12.5449 12.4184 11.2076 12.4184 9.5688C12.4184 7.93005 11.0811 6.5927 9.44231 6.5927ZM18.3684 9.5688C18.3684 8.33639 18.3795 7.11513 18.3103 5.88495C18.2411 4.45606 17.9152 3.18792 16.8703 2.14305C15.8232 1.09594 14.5573 0.772211 13.1284 0.703C11.896 0.633788 10.6747 0.644951 9.44454 0.644951C8.21212 0.644951 6.99087 0.633788 5.76069 0.703C4.3318 0.772211 3.06366 1.09818 2.01879 2.14305C0.971684 3.19016 0.647951 4.45606 0.57874 5.88495C0.509528 7.11737 0.520691 8.33862 0.520691 9.5688C0.520691 10.799 0.509528 12.0225 0.57874 13.2527C0.647951 14.6815 0.973916 15.9497 2.01879 16.9946C3.0659 18.0417 4.3318 18.3654 5.76069 18.4346C6.9931 18.5038 8.21435 18.4927 9.44454 18.4927C10.677 18.4927 11.8982 18.5038 13.1284 18.4346C14.5573 18.3654 15.8254 18.0394 16.8703 16.9946C17.9174 15.9474 18.2411 14.6815 18.3103 13.2527C18.3818 12.0225 18.3684 10.8012 18.3684 9.5688ZM9.44231 14.1479C6.90826 14.1479 4.86317 12.1028 4.86317 9.5688C4.86317 7.03476 6.90826 4.98966 9.44231 4.98966C11.9763 4.98966 14.0214 7.03476 14.0214 9.5688C14.0214 12.1028 11.9763 14.1479 9.44231 14.1479ZM14.209 5.87155C13.6173 5.87155 13.1396 5.39377 13.1396 4.80212C13.1396 4.21047 13.6173 3.73269 14.209 3.73269C14.8006 3.73269 15.2784 4.21047 15.2784 4.80212C15.2786 4.94261 15.2511 5.08175 15.1974 5.21158C15.1437 5.34141 15.0649 5.45938 14.9656 5.55872C14.8662 5.65806 14.7483 5.73683 14.6184 5.79051C14.4886 5.84419 14.3495 5.87173 14.209 5.87155Z" fill="#2F93E1"/>
</svg>
