<svg width="11" height="18" viewBox="0 0 11 18" fill="none" xmlns="http://www.w3.org/2000/svg">
<path d="M5.47003 9.12411C2.99832 9.12411 0.943952 7.13006 0.943952 4.77052C0.943952 2.32938 2.99832 0.334473 5.4709 0.334473C8.02748 0.334473 9.99697 2.32853 9.99697 4.77052C9.99257 5.92908 9.51483 7.03855 8.66875 7.85507C7.82267 8.67159 6.67749 9.12835 5.4849 9.12496L5.47003 9.12411ZM5.47003 2.89886C4.4236 2.89886 3.6274 3.75309 3.6274 4.77137C3.6274 5.78794 4.4236 6.56143 5.4709 6.56143C6.5602 6.56143 7.3144 5.78794 7.3144 4.77137C7.31528 3.75224 6.5602 2.89886 5.47003 2.89886ZM7.2724 12.7467L9.82986 15.1479C10.333 15.6758 10.333 16.4492 9.82986 16.938C9.28565 17.4658 8.44658 17.4658 8.02748 16.938L5.4709 14.496L2.99832 16.938C2.74721 17.1819 2.41123 17.3035 2.03325 17.3035C1.74015 17.3035 1.40505 17.1811 1.11107 16.938C0.607975 16.4492 0.607975 15.6758 1.11107 15.1471L3.70964 12.7459C2.77121 12.4759 1.87098 12.0936 1.0297 11.6078C0.400613 11.2822 0.275497 10.4688 0.610599 9.85765C1.0297 9.24736 1.7839 9.08502 2.45498 9.49216C3.36369 10.0309 4.40765 10.3159 5.47221 10.3159C6.53677 10.3159 7.58074 10.0309 8.48945 9.49216C9.16053 9.08502 9.95585 9.24736 10.333 9.85765C10.7109 10.4688 10.5421 11.2814 9.95498 11.6078C9.15965 12.0965 8.23747 12.4628 7.27328 12.7476L7.2724 12.7467Z" fill="#2F93E1"/>
</svg>
