<svg width="15" height="18" viewBox="0 0 15 18" fill="none" xmlns="http://www.w3.org/2000/svg">
<path d="M7.79141 0.348817C8.69837 0.334473 9.60014 0.342973 10.5009 0.334473C10.5554 1.41877 10.9369 2.52326 11.7134 3.28987C12.4884 4.0756 13.5845 4.43526 14.6511 4.55692V7.40925C13.6516 7.37578 12.6474 7.16328 11.7405 6.72339C11.3455 6.54064 10.9775 6.30529 10.6173 6.06463C10.6126 8.13442 10.6256 10.2015 10.6043 12.2628C10.5502 13.2531 10.2306 14.2386 9.66719 15.0546C8.76074 16.413 7.18746 17.2986 5.57156 17.3263C4.58039 17.3842 3.59027 17.1079 2.74567 16.599C1.34599 15.7553 0.361059 14.211 0.217608 12.5534C0.199539 12.2024 0.196764 11.8507 0.209292 11.4994C0.334032 10.1516 0.986319 8.86224 1.99879 7.98513C3.1464 6.96352 4.75399 6.47689 6.25919 6.76483C6.27322 7.81407 6.23216 8.86224 6.23216 9.91148C5.54453 9.6841 4.741 9.74785 4.14016 10.1745C3.70058 10.4705 3.36839 10.9059 3.19474 11.4139C3.05129 11.773 3.09235 12.172 3.10066 12.5534C3.26542 13.7158 4.35898 14.6928 5.52634 14.5871C6.30025 14.5786 7.04193 14.1196 7.44526 13.4475C7.57571 13.2122 7.72176 12.9715 7.72956 12.6947C7.79765 11.4277 7.77062 10.166 7.77894 8.8989C7.78465 6.04338 7.77062 3.19583 7.79193 0.349348L7.79141 0.348817Z" fill="#2F93E1"/>
</svg>
