<svg width="20" height="17" viewBox="0 0 20 17" fill="none" xmlns="http://www.w3.org/2000/svg">
<path d="M19.4548 2.15316C18.7672 2.47688 18.0284 2.6956 17.2518 2.79447C18.0531 2.28509 18.6526 1.4834 18.9385 0.538969C18.1856 1.01403 17.3617 1.34842 16.5024 1.52761C15.9246 0.872189 15.1593 0.437766 14.3252 0.291786C13.4912 0.145807 12.6352 0.296438 11.89 0.720295C11.1448 1.14415 10.5522 1.81752 10.2041 2.63585C9.85606 3.45418 9.77206 4.3717 9.96515 5.24594C8.4397 5.16458 6.94739 4.74336 5.58509 4.00962C4.22278 3.27589 3.02092 2.24605 2.05751 0.986919C1.72809 1.5906 1.53868 2.29052 1.53868 3.03594C1.53831 3.70699 1.69386 4.36775 1.99153 4.95962C2.28919 5.55148 2.71977 6.05614 3.24506 6.42881C2.63586 6.40822 2.04011 6.23335 1.50739 5.91875V5.97124C1.50732 6.91241 1.81377 7.82461 2.37473 8.55307C2.93568 9.28153 3.71659 9.78138 4.58496 9.9678C4.01983 10.1303 3.42734 10.1542 2.85223 10.0378C3.09723 10.8476 3.57447 11.5558 4.21714 12.0631C4.85981 12.5705 5.63573 12.8516 6.43628 12.8672C5.0773 14.0006 3.39897 14.6154 1.67127 14.6127C1.36523 14.6127 1.05944 14.5938 0.755493 14.5558C2.5092 15.7537 4.55065 16.3894 6.63558 16.387C13.6933 16.387 17.5516 10.1769 17.5516 4.791C17.5516 4.61602 17.5475 4.43928 17.5401 4.2643C18.2906 3.68772 18.9384 2.97373 19.4532 2.15579L19.4548 2.15316Z" fill="#2F93E1"/>
</svg>
