<svg width="19" height="13" viewBox="0 0 19 13" fill="none" xmlns="http://www.w3.org/2000/svg">
<path d="M18.5748 2.45921C18.4689 2.0989 18.2627 1.77269 17.978 1.51526C17.6853 1.24992 17.3266 1.06012 16.9357 0.963763C15.4727 0.595849 9.61121 0.595849 9.61121 0.595849C7.16764 0.569324 4.72466 0.685988 2.29608 0.945182C1.90516 1.04865 1.54709 1.2427 1.25374 1.51006C0.965493 1.77466 0.756712 2.10095 0.647647 2.45846C0.385653 3.80506 0.258358 5.17237 0.267479 6.54194C0.258131 7.91029 0.385113 9.27715 0.647647 10.6254C0.754375 10.9814 0.962377 11.3063 1.2514 11.5686C1.54042 11.831 1.90033 12.0205 2.29608 12.1209C3.77858 12.488 9.61121 12.488 9.61121 12.488C12.0579 12.5146 14.504 12.3979 16.9357 12.1387C17.3266 12.0424 17.6853 11.8525 17.978 11.5872C18.2663 11.3248 18.4712 10.9985 18.574 10.6433C18.8428 9.29718 18.9735 7.92931 18.9643 6.55904C18.9845 5.18297 18.854 3.80865 18.5748 2.45846V2.45921ZM7.74776 9.08687V3.99776L12.6245 6.54269L7.74776 9.08687Z" fill="#2F93E1"/>
</svg>
